<?xml version="1.0" encoding="UTF-8"?><svg id="uuid-d691feab-7995-4ad7-8e8b-571a6422ca73" xmlns="http://www.w3.org/2000/svg" viewBox="0 0 72 50"><rect x="1.5" y="1.5" width="69" height="47" rx="5.5" ry="5.5" style="fill:#fff; stroke:#d9d9d9;"/><path d="M22.25,33.52h-4.24l-3.18-12.13c-.15-.56-.47-1.05-.94-1.28-1.18-.58-2.47-1.05-3.89-1.28v-.47h6.83c.94,0,1.65,.7,1.77,1.52l1.65,8.75,4.24-10.27h4.12l-6.36,15.17Zm8.72,0h-4l3.3-15.17h4l-3.3,15.17Zm8.48-10.97c.12-.82,.83-1.28,1.65-1.28,1.3-.12,2.71,.12,3.89,.7l.71-3.27c-1.18-.47-2.47-.7-3.65-.7-3.89,0-6.72,2.1-6.72,5.02,0,2.22,2,3.38,3.42,4.08,1.53,.7,2.12,1.17,2,1.87,0,1.05-1.18,1.52-2.35,1.52-1.41,0-2.83-.35-4.12-.93l-.71,3.27c1.41,.58,2.94,.82,4.36,.82,4.36,.12,7.07-1.98,7.07-5.13,0-3.97-5.54-4.2-5.54-5.95Zm19.55,10.97l-3.18-15.17h-3.42c-.71,0-1.41,.47-1.65,1.17l-5.89,14h4.12l.82-2.22h5.07l.47,2.22h3.65Zm-6.01-11.08l1.18,5.72h-3.3l2.12-5.72Z" style="fill:#172b85; fill-rule:evenodd;"/></svg>