<?xml version="1.0" encoding="UTF-8"?><svg id="uuid-0f8905fd-eec6-4bae-b988-8ae5575648eb" xmlns="http://www.w3.org/2000/svg" viewBox="0 0 72 50"><rect x="1.5" y="1.5" width="69" height="47" rx="5.5" ry="5.5" style="fill:#fff; stroke:#d9d9d9;"/><path d="M36.5,35.31c-2.38,2.06-5.47,3.3-8.85,3.3-7.54,0-13.65-6.18-13.65-13.81s6.11-13.81,13.65-13.81c3.38,0,6.47,1.24,8.85,3.3,2.38-2.06,5.47-3.3,8.85-3.3,7.54,0,13.65,6.18,13.65,13.81s-6.11,13.81-13.65,13.81c-3.38,0-6.47-1.24-8.85-3.3Z" style="fill:#ed0006; fill-rule:evenodd;"/><path d="M36.5,35.31c2.93-2.53,4.8-6.3,4.8-10.51s-1.86-7.98-4.8-10.51c2.38-2.06,5.47-3.3,8.85-3.3,7.54,0,13.65,6.18,13.65,13.81s-6.11,13.81-13.65,13.81c-3.38,0-6.47-1.24-8.85-3.3Z" style="fill:#f9a000; fill-rule:evenodd;"/><path d="M36.5,14.3c2.93,2.53,4.8,6.3,4.8,10.51s-1.86,7.98-4.8,10.51c-2.93-2.53-4.8-6.3-4.8-10.51s1.86-7.98,4.8-10.51Z" style="fill:#ff5e00; fill-rule:evenodd;"/></svg>