<?xml version="1.0" encoding="UTF-8"?>
<svg id="uuid-4edfa765-f36b-47d6-aff9-5ca091ec5777" xmlns="http://www.w3.org/2000/svg" viewBox="0 0 72 50"><rect x="1.5" y="1.5" width="69" height="47" rx="5.5" ry="5.5" style="fill:#1f72cd; stroke:#d9d9d9;"/><path d="M13.55,18l-6.55,14.49h7.84l.97-2.31h2.22l.97,2.31h8.63v-1.76l.77,1.76h4.46l.77-1.8v1.8h17.95l2.18-2.25,2.04,2.25,9.22,.02-6.57-7.22,6.57-7.29h-9.08l-2.12,2.21-1.98-2.21h-19.53l-1.68,3.74-1.72-3.74h-7.82v1.7l-.87-1.7h-6.69Zm26.8,2.06h10.31l3.15,3.41,3.25-3.41h3.15l-4.79,5.23,4.79,5.17h-3.3l-3.15-3.44-3.27,3.44h-10.15v-10.39Zm2.55,4.05v-1.9h6.43l2.81,3.03-2.93,3.05h-6.31v-2.07h5.62v-2.12h-5.62Zm-27.83-4.05h3.82l4.34,9.83v-9.83h4.19l3.36,7.05,3.09-7.05h4.17v10.4h-2.53l-.02-8.15-3.7,8.15h-2.27l-3.72-8.15v8.15h-5.21l-.99-2.33h-5.34l-.99,2.33h-2.79l4.59-10.4Zm.1,5.91l1.76-4.15,1.76,4.15h-3.52Z" style="fill:#fff; fill-rule:evenodd;"/></svg>