<?xml version="1.0" encoding="UTF-8"?><svg id="uuid-bd7402db-6ea8-4236-b8b8-2667b5e5462b" xmlns="http://www.w3.org/2000/svg" viewBox="0 0 72 50"><rect x="1.5" y="1.5" width="69" height="47" rx="5.5" ry="5.5" style="fill:#fff; stroke:#d9d9d9;"/><path d="M20.8,31.48h-3.11c-.21,0-.39,.15-.43,.36l-1.26,7.98c-.02,.16,.1,.3,.26,.3h1.49c.21,0,.39-.15,.43-.37l.34-2.15c.03-.21,.21-.37,.43-.37h.98c2.05,0,3.23-.99,3.54-2.96,.14-.86,0-1.54-.4-2.01-.44-.52-1.23-.79-2.27-.79Zm.36,2.91c-.17,1.12-1.02,1.12-1.85,1.12h-.47l.33-2.09c.02-.13,.13-.22,.26-.22h.22c.56,0,1.09,0,1.37,.32,.16,.19,.21,.48,.15,.87Zm8.94-.04h-1.49c-.13,0-.24,.09-.26,.22l-.07,.42-.1-.15c-.32-.47-1.04-.62-1.76-.62-1.65,0-3.05,1.25-3.33,3-.14,.87,.06,1.71,.56,2.29,.45,.53,1.1,.76,1.88,.76,1.33,0,2.06-.85,2.06-.85l-.07,.41c-.03,.16,.1,.3,.26,.3h1.34c.21,0,.39-.15,.43-.37l.81-5.1c.03-.16-.1-.3-.26-.3Zm-2.08,2.9c-.14,.85-.82,1.42-1.68,1.42-.43,0-.78-.14-1-.4-.22-.26-.3-.63-.23-1.05,.13-.84,.82-1.43,1.67-1.43,.42,0,.77,.14,.99,.41,.23,.27,.32,.64,.25,1.05Zm8.51-2.9h1.5c.21,0,.33,.24,.21,.41l-4.98,7.19c-.08,.12-.21,.19-.36,.19h-1.5c-.21,0-.33-.24-.21-.41l1.55-2.19-1.65-4.84c-.06-.17,.07-.34,.25-.34h1.47c.19,0,.36,.13,.41,.31l.88,2.92,2.07-3.04c.08-.12,.22-.19,.36-.19Z" style="fill:#253b80; fill-rule:evenodd;"/><path d="M52.77,39.82l1.28-8.12c.02-.13,.13-.22,.26-.22h1.44c.16,0,.28,.14,.26,.3l-1.26,7.98c-.03,.21-.21,.37-.43,.37h-1.28c-.16,0-.28-.14-.26-.3Zm-9.78-8.34h-3.11c-.21,0-.39,.15-.43,.36l-1.26,7.98c-.03,.16,.1,.3,.26,.3h1.6c.15,0,.28-.11,.3-.26l.36-2.26c.03-.21,.21-.37,.43-.37h.98c2.05,0,3.23-.99,3.54-2.96,.14-.86,0-1.54-.4-2.01-.44-.52-1.23-.79-2.27-.79Zm.36,2.91c-.17,1.12-1.02,1.12-1.85,1.12h-.47l.33-2.09c.02-.13,.13-.22,.26-.22h.22c.56,0,1.09,0,1.37,.32,.16,.19,.21,.47,.15,.87Zm8.94-.04h-1.49c-.13,0-.24,.09-.26,.22l-.07,.42-.1-.15c-.32-.47-1.04-.62-1.76-.62-1.65,0-3.05,1.25-3.33,3-.14,.87,.06,1.71,.55,2.29,.45,.53,1.1,.76,1.88,.76,1.33,0,2.06-.85,2.06-.85l-.07,.41c-.03,.16,.1,.3,.26,.3h1.34c.21,0,.39-.15,.43-.37l.81-5.1c.02-.16-.1-.3-.26-.3Zm-2.08,2.9c-.14,.85-.82,1.42-1.68,1.42-.43,0-.78-.14-1-.4-.22-.26-.3-.63-.23-1.05,.13-.84,.82-1.43,1.67-1.43,.42,0,.77,.14,.99,.41,.23,.27,.32,.64,.25,1.05Z" style="fill:#179bd7; fill-rule:evenodd;"/><path d="M32.31,28.63l.38-2.43-.85-.02h-4.07l2.83-17.93c0-.05,.04-.1,.08-.14,.04-.04,.1-.06,.15-.06h6.86c2.28,0,3.85,.47,4.67,1.41,.38,.44,.63,.9,.75,1.4,.12,.53,.13,1.16,0,1.93v.55l.38,.22c.32,.17,.58,.37,.78,.59,.33,.38,.54,.85,.63,1.42,.09,.58,.06,1.27-.09,2.06-.18,.9-.46,1.69-.84,2.33-.35,.59-.8,1.08-1.33,1.46-.51,.36-1.11,.64-1.8,.81-.66,.17-1.42,.26-2.25,.26h-.53c-.38,0-.75,.14-1.04,.38-.29,.25-.49,.6-.54,.97l-.04,.22-.68,4.28-.03,.16s-.02,.07-.04,.09c-.02,.02-.04,.03-.07,.03h-3.3Z" style="fill:#253b80;"/><path d="M43.86,12.91c-.02,.13-.04,.26-.07,.4-.9,4.64-4,6.25-7.95,6.25h-2.01c-.48,0-.89,.35-.97,.83l-1.03,6.54-.29,1.85c-.05,.31,.19,.6,.51,.6h3.57c.42,0,.78-.31,.85-.72l.04-.18,.67-4.27,.04-.23c.07-.42,.43-.73,.85-.73h.53c3.46,0,6.17-1.4,6.96-5.47,.33-1.7,.16-3.11-.72-4.11-.26-.3-.59-.55-.98-.75Z" style="fill:#179bd7;"/><path d="M42.91,12.54c-.14-.04-.28-.08-.43-.11-.15-.03-.3-.06-.45-.09-.54-.09-1.14-.13-1.77-.13h-5.38c-.13,0-.26,.03-.37,.08-.25,.12-.43,.35-.48,.64l-1.14,7.24-.03,.21c.08-.48,.48-.83,.97-.83h2.01c3.95,0,7.05-1.61,7.95-6.25,.03-.14,.05-.27,.07-.4-.23-.12-.48-.23-.74-.31-.07-.02-.13-.04-.2-.06Z" style="fill:#222d65;"/><path d="M34.03,12.94c.04-.29,.23-.52,.48-.64,.11-.05,.24-.08,.37-.08h5.38c.64,0,1.23,.04,1.77,.13,.16,.02,.31,.05,.45,.09,.15,.03,.29,.07,.43,.11,.07,.02,.14,.04,.2,.06,.27,.09,.51,.19,.74,.31,.27-1.72,0-2.89-.93-3.94-1.02-1.17-2.87-1.66-5.23-1.66h-6.86c-.48,0-.89,.35-.97,.83l-2.86,18.11c-.06,.36,.22,.68,.58,.68h4.24l1.06-6.75,1.14-7.24Z" style="fill:#253b80;"/></svg>